<svg id="visual" viewBox="0 0 900 450" width="900" height="450" xmlns="http://www.w3.org/2000/svg" xmlns:xlink="http://www.w3.org/1999/xlink" version="1.1"><rect x="0" y="0" width="900" height="450" fill="#202731"></rect><path d="M0 87L10.7 89.2C21.3 91.3 42.7 95.7 64.2 96.3C85.7 97 107.3 94 128.8 98.3C150.3 102.7 171.7 114.3 193 117.7C214.3 121 235.7 116 257 111.2C278.3 106.3 299.7 101.7 321.2 101.8C342.7 102 364.3 107 385.8 106.7C407.3 106.3 428.7 100.7 450 101.5C471.3 102.3 492.7 109.7 514.2 106.8C535.7 104 557.3 91 578.8 87.2C600.3 83.3 621.7 88.7 643 96.2C664.3 103.7 685.7 113.3 707 117.8C728.3 122.3 749.7 121.7 771.2 119.8C792.7 118 814.3 115 835.8 111.5C857.3 108 878.7 104 889.3 102L900 100L900 0L889.3 0C878.7 0 857.3 0 835.8 0C814.3 0 792.7 0 771.2 0C749.7 0 728.3 0 707 0C685.7 0 664.3 0 643 0C621.7 0 600.3 0 578.8 0C557.3 0 535.7 0 514.2 0C492.7 0 471.3 0 450 0C428.7 0 407.3 0 385.8 0C364.3 0 342.7 0 321.2 0C299.7 0 278.3 0 257 0C235.7 0 214.3 0 193 0C171.7 0 150.3 0 128.8 0C107.3 0 85.7 0 64.2 0C42.7 0 21.3 0 10.7 0L0 0Z" fill="#dd3f31"></path><path d="M0 91L10.7 92.3C21.3 93.7 42.7 96.3 64.2 91.5C85.7 86.7 107.3 74.3 128.8 71.3C150.3 68.3 171.7 74.7 193 78C214.3 81.3 235.7 81.7 257 85C278.3 88.3 299.7 94.7 321.2 93.5C342.7 92.3 364.3 83.7 385.8 83.8C407.3 84 428.7 93 450 96C471.3 99 492.7 96 514.2 91C535.7 86 557.3 79 578.8 79.3C600.3 79.7 621.7 87.3 643 89.2C664.3 91 685.7 87 707 81.2C728.3 75.3 749.7 67.7 771.2 65C792.7 62.3 814.3 64.7 835.8 65.7C857.3 66.7 878.7 66.3 889.3 66.2L900 66L900 0L889.3 0C878.7 0 857.3 0 835.8 0C814.3 0 792.7 0 771.2 0C749.7 0 728.3 0 707 0C685.7 0 664.3 0 643 0C621.7 0 600.3 0 578.8 0C557.3 0 535.7 0 514.2 0C492.7 0 471.3 0 450 0C428.7 0 407.3 0 385.8 0C364.3 0 342.7 0 321.2 0C299.7 0 278.3 0 257 0C235.7 0 214.3 0 193 0C171.7 0 150.3 0 128.8 0C107.3 0 85.7 0 64.2 0C42.7 0 21.3 0 10.7 0L0 0Z" fill="#e4483a"></path><path d="M0 86L10.7 82.8C21.3 79.7 42.7 73.3 64.2 68.2C85.7 63 107.3 59 128.8 55.5C150.3 52 171.7 49 193 52.3C214.3 55.7 235.7 65.3 257 67.8C278.3 70.3 299.7 65.7 321.2 65C342.7 64.3 364.3 67.7 385.8 68.5C407.3 69.3 428.7 67.7 450 66.8C471.3 66 492.7 66 514.2 66.5C535.7 67 557.3 68 578.8 70.7C600.3 73.3 621.7 77.7 643 78.8C664.3 80 685.7 78 707 76.3C728.3 74.7 749.7 73.3 771.2 70.5C792.7 67.7 814.3 63.3 835.8 59.5C857.3 55.7 878.7 52.3 889.3 50.7L900 49L900 0L889.3 0C878.7 0 857.3 0 835.8 0C814.3 0 792.7 0 771.2 0C749.7 0 728.3 0 707 0C685.7 0 664.3 0 643 0C621.7 0 600.3 0 578.8 0C557.3 0 535.7 0 514.2 0C492.7 0 471.3 0 450 0C428.7 0 407.3 0 385.8 0C364.3 0 342.7 0 321.2 0C299.7 0 278.3 0 257 0C235.7 0 214.3 0 193 0C171.7 0 150.3 0 128.8 0C107.3 0 85.7 0 64.2 0C42.7 0 21.3 0 10.7 0L0 0Z" fill="#eb5243"></path><path d="M0 40L10.7 43.2C21.3 46.3 42.7 52.7 64.2 52.2C85.7 51.7 107.3 44.3 128.8 44C150.3 43.7 171.7 50.3 193 53.8C214.3 57.3 235.7 57.7 257 59.8C278.3 62 299.7 66 321.2 63.8C342.7 61.7 364.3 53.3 385.8 48C407.3 42.7 428.7 40.3 450 40.5C471.3 40.7 492.7 43.3 514.2 42.8C535.7 42.3 557.3 38.7 578.8 38.8C600.3 39 621.7 43 643 42.5C664.3 42 685.7 37 707 38.7C728.3 40.3 749.7 48.7 771.2 53.5C792.7 58.3 814.3 59.7 835.8 60C857.3 60.3 878.7 59.7 889.3 59.3L900 59L900 0L889.3 0C878.7 0 857.3 0 835.8 0C814.3 0 792.7 0 771.2 0C749.7 0 728.3 0 707 0C685.7 0 664.3 0 643 0C621.7 0 600.3 0 578.8 0C557.3 0 535.7 0 514.2 0C492.7 0 471.3 0 450 0C428.7 0 407.3 0 385.8 0C364.3 0 342.7 0 321.2 0C299.7 0 278.3 0 257 0C235.7 0 214.3 0 193 0C171.7 0 150.3 0 128.8 0C107.3 0 85.7 0 64.2 0C42.7 0 21.3 0 10.7 0L0 0Z" fill="#f15a4d"></path><path d="M0 28L10.7 29.3C21.3 30.7 42.7 33.3 64.2 34.7C85.7 36 107.3 36 128.8 37.5C150.3 39 171.7 42 193 40C214.3 38 235.7 31 257 30.3C278.3 29.7 299.7 35.3 321.2 38.5C342.7 41.7 364.3 42.3 385.8 43.8C407.3 45.3 428.7 47.7 450 48.5C471.3 49.3 492.7 48.7 514.2 43.5C535.7 38.3 557.3 28.7 578.8 28.5C600.3 28.3 621.7 37.7 643 39.3C664.3 41 685.7 35 707 30.3C728.3 25.7 749.7 22.3 771.2 25.5C792.7 28.7 814.3 38.3 835.8 40.2C857.3 42 878.7 36 889.3 33L900 30L900 0L889.3 0C878.7 0 857.3 0 835.8 0C814.3 0 792.7 0 771.2 0C749.7 0 728.3 0 707 0C685.7 0 664.3 0 643 0C621.7 0 600.3 0 578.8 0C557.3 0 535.7 0 514.2 0C492.7 0 471.3 0 450 0C428.7 0 407.3 0 385.8 0C364.3 0 342.7 0 321.2 0C299.7 0 278.3 0 257 0C235.7 0 214.3 0 193 0C171.7 0 150.3 0 128.8 0C107.3 0 85.7 0 64.2 0C42.7 0 21.3 0 10.7 0L0 0Z" fill="#f86356"></path><path d="M0 27L10.7 23.2C21.3 19.3 42.7 11.7 64.2 8C85.7 4.3 107.3 4.7 128.8 4.8C150.3 5 171.7 5 193 6.5C214.3 8 235.7 11 257 13.5C278.3 16 299.7 18 321.2 16.7C342.7 15.3 364.3 10.7 385.8 12C407.3 13.3 428.7 20.7 450 24.5C471.3 28.3 492.7 28.7 514.2 25C535.7 21.3 557.3 13.7 578.8 10.8C600.3 8 621.7 10 643 10.7C664.3 11.3 685.7 10.7 707 10.8C728.3 11 749.7 12 771.2 13C792.7 14 814.3 15 835.8 15.3C857.3 15.7 878.7 15.3 889.3 15.2L900 15L900 0L889.3 0C878.7 0 857.3 0 835.8 0C814.3 0 792.7 0 771.2 0C749.7 0 728.3 0 707 0C685.7 0 664.3 0 643 0C621.7 0 600.3 0 578.8 0C557.3 0 535.7 0 514.2 0C492.7 0 471.3 0 450 0C428.7 0 407.3 0 385.8 0C364.3 0 342.7 0 321.2 0C299.7 0 278.3 0 257 0C235.7 0 214.3 0 193 0C171.7 0 150.3 0 128.8 0C107.3 0 85.7 0 64.2 0C42.7 0 21.3 0 10.7 0L0 0Z" fill="#ff6c5f"></path></svg>