<svg id="visual" viewBox="0 0 900 450" width="900" height="450" xmlns="http://www.w3.org/2000/svg" xmlns:xlink="http://www.w3.org/1999/xlink" version="1.1"><rect x="0" y="0" width="900" height="450" fill="#202731"></rect><path d="M0 211L16.7 210.8C33.3 210.7 66.7 210.3 100 214.2C133.3 218 166.7 226 200 230.3C233.3 234.7 266.7 235.3 300 230.5C333.3 225.7 366.7 215.3 400 210.2C433.3 205 466.7 205 500 213.8C533.3 222.7 566.7 240.3 600 243.8C633.3 247.3 666.7 236.7 700 232C733.3 227.3 766.7 228.7 800 228.5C833.3 228.3 866.7 226.7 883.3 225.8L900 225L900 0L883.3 0C866.7 0 833.3 0 800 0C766.7 0 733.3 0 700 0C666.7 0 633.3 0 600 0C566.7 0 533.3 0 500 0C466.7 0 433.3 0 400 0C366.7 0 333.3 0 300 0C266.7 0 233.3 0 200 0C166.7 0 133.3 0 100 0C66.7 0 33.3 0 16.7 0L0 0Z" fill="#ff6f61"></path><path d="M0 186L16.7 183.2C33.3 180.3 66.7 174.7 100 173C133.3 171.3 166.7 173.7 200 177C233.3 180.3 266.7 184.7 300 190.8C333.3 197 366.7 205 400 206.8C433.3 208.7 466.7 204.3 500 204.3C533.3 204.3 566.7 208.7 600 205.8C633.3 203 666.7 193 700 186.7C733.3 180.3 766.7 177.7 800 184.5C833.3 191.3 866.7 207.7 883.3 215.8L900 224L900 0L883.3 0C866.7 0 833.3 0 800 0C766.7 0 733.3 0 700 0C666.7 0 633.3 0 600 0C566.7 0 533.3 0 500 0C466.7 0 433.3 0 400 0C366.7 0 333.3 0 300 0C266.7 0 233.3 0 200 0C166.7 0 133.3 0 100 0C66.7 0 33.3 0 16.7 0L0 0Z" fill="#f86657"></path><path d="M0 159L16.7 161.2C33.3 163.3 66.7 167.7 100 171.5C133.3 175.3 166.7 178.7 200 179.7C233.3 180.7 266.7 179.3 300 174C333.3 168.7 366.7 159.3 400 153C433.3 146.7 466.7 143.3 500 141.3C533.3 139.3 566.7 138.7 600 137.7C633.3 136.7 666.7 135.3 700 139C733.3 142.7 766.7 151.3 800 157.2C833.3 163 866.7 166 883.3 167.5L900 169L900 0L883.3 0C866.7 0 833.3 0 800 0C766.7 0 733.3 0 700 0C666.7 0 633.3 0 600 0C566.7 0 533.3 0 500 0C466.7 0 433.3 0 400 0C366.7 0 333.3 0 300 0C266.7 0 233.3 0 200 0C166.7 0 133.3 0 100 0C66.7 0 33.3 0 16.7 0L0 0Z" fill="#f15d4e"></path><path d="M0 119L16.7 122.2C33.3 125.3 66.7 131.7 100 135.2C133.3 138.7 166.7 139.3 200 137.7C233.3 136 266.7 132 300 128C333.3 124 366.7 120 400 121.2C433.3 122.3 466.7 128.7 500 127.5C533.3 126.3 566.7 117.7 600 115.8C633.3 114 666.7 119 700 121.2C733.3 123.3 766.7 122.7 800 119.2C833.3 115.7 866.7 109.3 883.3 106.2L900 103L900 0L883.3 0C866.7 0 833.3 0 800 0C766.7 0 733.3 0 700 0C666.7 0 633.3 0 600 0C566.7 0 533.3 0 500 0C466.7 0 433.3 0 400 0C366.7 0 333.3 0 300 0C266.7 0 233.3 0 200 0C166.7 0 133.3 0 100 0C66.7 0 33.3 0 16.7 0L0 0Z" fill="#eb5344"></path><path d="M0 93L16.7 88.8C33.3 84.7 66.7 76.3 100 71.5C133.3 66.7 166.7 65.3 200 68.3C233.3 71.3 266.7 78.7 300 82.3C333.3 86 366.7 86 400 85.8C433.3 85.7 466.7 85.3 500 84.7C533.3 84 566.7 83 600 83.5C633.3 84 666.7 86 700 87.8C733.3 89.7 766.7 91.3 800 89.2C833.3 87 866.7 81 883.3 78L900 75L900 0L883.3 0C866.7 0 833.3 0 800 0C766.7 0 733.3 0 700 0C666.7 0 633.3 0 600 0C566.7 0 533.3 0 500 0C466.7 0 433.3 0 400 0C366.7 0 333.3 0 300 0C266.7 0 233.3 0 200 0C166.7 0 133.3 0 100 0C66.7 0 33.3 0 16.7 0L0 0Z" fill="#e4493b"></path><path d="M0 46L16.7 44.2C33.3 42.3 66.7 38.7 100 37.2C133.3 35.7 166.7 36.3 200 40.2C233.3 44 266.7 51 300 51.7C333.3 52.3 366.7 46.7 400 44C433.3 41.3 466.7 41.7 500 44.3C533.3 47 566.7 52 600 55C633.3 58 666.7 59 700 58.2C733.3 57.3 766.7 54.7 800 53.8C833.3 53 866.7 54 883.3 54.5L900 55L900 0L883.3 0C866.7 0 833.3 0 800 0C766.7 0 733.3 0 700 0C666.7 0 633.3 0 600 0C566.7 0 533.3 0 500 0C466.7 0 433.3 0 400 0C366.7 0 333.3 0 300 0C266.7 0 233.3 0 200 0C166.7 0 133.3 0 100 0C66.7 0 33.3 0 16.7 0L0 0Z" fill="#dd3f31"></path></svg>