<svg id="visual" viewBox="0 0 900 600" width="900" height="600" xmlns="http://www.w3.org/2000/svg" xmlns:xlink="http://www.w3.org/1999/xlink" version="1.1"><rect x="0" y="0" width="900" height="600" fill="#001220"></rect><path d="M0 389L21.5 388.7C43 388.3 86 387.7 128.8 394.3C171.7 401 214.3 415 257.2 421.5C300 428 343 427 385.8 416.8C428.7 406.7 471.3 387.3 514.2 386.5C557 385.7 600 403.3 642.8 407.2C685.7 411 728.3 401 771.2 397.5C814 394 857 397 878.5 398.5L900 400L900 601L878.5 601C857 601 814 601 771.2 601C728.3 601 685.7 601 642.8 601C600 601 557 601 514.2 601C471.3 601 428.7 601 385.8 601C343 601 300 601 257.2 601C214.3 601 171.7 601 128.8 601C86 601 43 601 21.5 601L0 601Z" fill="#fa7268"></path><path d="M0 393L21.5 393.3C43 393.7 86 394.3 128.8 405.8C171.7 417.3 214.3 439.7 257.2 440.2C300 440.7 343 419.3 385.8 415.7C428.7 412 471.3 426 514.2 436.2C557 446.3 600 452.7 642.8 453.3C685.7 454 728.3 449 771.2 446C814 443 857 442 878.5 441.5L900 441L900 601L878.5 601C857 601 814 601 771.2 601C728.3 601 685.7 601 642.8 601C600 601 557 601 514.2 601C471.3 601 428.7 601 385.8 601C343 601 300 601 257.2 601C214.3 601 171.7 601 128.8 601C86 601 43 601 21.5 601L0 601Z" fill="#ef5f67"></path><path d="M0 492L21.5 493.7C43 495.3 86 498.7 128.8 495.7C171.7 492.7 214.3 483.3 257.2 475.3C300 467.3 343 460.7 385.8 461.8C428.7 463 471.3 472 514.2 478C557 484 600 487 642.8 491.7C685.7 496.3 728.3 502.7 771.2 497.7C814 492.7 857 476.3 878.5 468.2L900 460L900 601L878.5 601C857 601 814 601 771.2 601C728.3 601 685.7 601 642.8 601C600 601 557 601 514.2 601C471.3 601 428.7 601 385.8 601C343 601 300 601 257.2 601C214.3 601 171.7 601 128.8 601C86 601 43 601 21.5 601L0 601Z" fill="#e34c67"></path><path d="M0 512L21.5 513.3C43 514.7 86 517.3 128.8 519.5C171.7 521.7 214.3 523.3 257.2 526.5C300 529.7 343 534.3 385.8 531.7C428.7 529 471.3 519 514.2 518.8C557 518.7 600 528.3 642.8 527.5C685.7 526.7 728.3 515.3 771.2 514.7C814 514 857 524 878.5 529L900 534L900 601L878.5 601C857 601 814 601 771.2 601C728.3 601 685.7 601 642.8 601C600 601 557 601 514.2 601C471.3 601 428.7 601 385.8 601C343 601 300 601 257.2 601C214.3 601 171.7 601 128.8 601C86 601 43 601 21.5 601L0 601Z" fill="#d53867"></path><path d="M0 556L21.5 551.7C43 547.3 86 538.7 128.8 536.8C171.7 535 214.3 540 257.2 543.2C300 546.3 343 547.7 385.8 547.5C428.7 547.3 471.3 545.7 514.2 547.3C557 549 600 554 642.8 556.8C685.7 559.7 728.3 560.3 771.2 559C814 557.7 857 554.3 878.5 552.7L900 551L900 601L878.5 601C857 601 814 601 771.2 601C728.3 601 685.7 601 642.8 601C600 601 557 601 514.2 601C471.3 601 428.7 601 385.8 601C343 601 300 601 257.2 601C214.3 601 171.7 601 128.8 601C86 601 43 601 21.5 601L0 601Z" fill="#c62368"></path></svg>