<svg id="visual" viewBox="0 0 900 450" width="900" height="450" xmlns="http://www.w3.org/2000/svg" xmlns:xlink="http://www.w3.org/1999/xlink" version="1.1"><rect x="0" y="0" width="900" height="450" fill="#ff6c5f"></rect><path d="M0 113L129 178L257 154L386 157L514 174L643 120L771 186L900 125L900 0L771 0L643 0L514 0L386 0L257 0L129 0L0 0Z" fill="#f55e50"></path><path d="M0 116L129 117L257 116L386 147L514 113L643 135L771 94L900 137L900 0L771 0L643 0L514 0L386 0L257 0L129 0L0 0Z" fill="#ef5243"></path><path d="M0 115L129 109L257 87L386 77L514 107L643 115L771 80L900 68L900 0L771 0L643 0L514 0L386 0L257 0L129 0L0 0Z" fill="#e84636"></path><path d="M0 70L129 77L257 74L386 50L514 73L643 64L771 58L900 80L900 0L771 0L643 0L514 0L386 0L257 0L129 0L0 0Z" fill="#e13928"></path><path d="M0 22L129 25L257 19L386 51L514 24L643 37L771 53L900 22L900 0L771 0L643 0L514 0L386 0L257 0L129 0L0 0Z" fill="#da2a1a"></path></svg>